# Blender v2.79 (sub 0) OBJ File: 'crate.blend'
# www.blender.org
mtllib crate.mtl
o crate_Cube.001
v -1.000000 -1.000000 1.000000
v -1.000000 1.000000 1.000000
v 0.720000 0.720000 1.000000
v 0.720000 -0.720000 1.000000
v 1.000000 -1.000000 1.000000
v -0.720000 0.720000 1.000000
v -0.720000 -0.720000 1.000000
v 0.720000 0.720000 0.905000
v -0.720000 0.720000 0.905000
v -0.720000 -0.720000 0.905000
v 0.720000 -0.720000 0.905000
v -0.720000 -0.720000 -0.905000
v 0.720000 -0.720000 -0.905000
v 0.720000 0.720000 -0.905000
v -0.720000 0.720000 -0.905000
v 0.720000 -0.720000 -1.000000
v 0.720000 0.720000 -1.000000
v -1.000000 -1.000000 -1.000000
v -0.720000 -0.720000 -1.000000
v -0.720000 0.720000 -1.000000
v 1.000000 1.000000 -1.000000
v -1.000000 -0.720000 0.720000
v -1.000000 0.720000 0.720000
v -1.000000 0.720000 -0.720000
v -1.000000 -0.720000 -0.720000
v -0.905000 0.720000 0.720000
v -0.905000 0.720000 -0.720000
v -0.905000 -0.720000 -0.720000
v -0.905000 -0.720000 0.720000
v 0.905000 -0.720000 -0.720000
v 0.905000 -0.720000 0.720000
v 0.905000 0.720000 0.720000
v 0.905000 0.720000 -0.720000
v 1.000000 -0.720000 0.720000
v 1.000000 0.720000 0.720000
v 1.000000 -0.720000 -0.720000
v 1.000000 0.720000 -0.720000
v 1.000000 1.000000 1.000000
v -0.720000 1.000000 0.720000
v 0.720000 1.000000 0.720000
v -1.000000 1.000000 -1.000000
v 0.720000 1.000000 -0.720000
v -0.720000 1.000000 -0.720000
v 0.720000 0.905000 0.720000
v 0.720000 0.905000 -0.720000
v -0.720000 0.905000 -0.720000
v -0.720000 0.905000 0.720000
v -0.720000 -0.905000 -0.720000
v -0.720000 -0.905000 0.720000
v 0.720000 -0.905000 0.720000
v 0.720000 -0.905000 -0.720000
v -0.720000 -1.000000 0.720000
v 0.720000 -1.000000 0.720000
v 1.000000 -1.000000 -1.000000
v -0.720000 -1.000000 -0.720000
v 0.720000 -1.000000 -0.720000
vt 0.974956 0.790646
vt 0.151348 0.924743
vt 0.017272 0.790647
vt 0.974956 0.790646
vt 0.151348 0.924744
vt 0.017272 0.790647
vt 0.017272 0.790647
vt 0.840880 0.924743
vt 0.151348 0.924744
vt 0.755959 0.752859
vt 0.034748 0.031648
vt 0.755959 0.031648
vt 0.974956 0.790647
vt 0.151348 0.924744
vt 0.017272 0.790647
vt 0.831348 0.040313
vt 0.912969 0.713189
vt 0.831348 0.713189
vt 0.831348 0.040313
vt 0.912969 0.713189
vt 0.831348 0.713189
vt 0.912970 0.713189
vt 0.831349 0.040313
vt 0.912970 0.040313
vt 0.912971 0.713189
vt 0.831349 0.040313
vt 0.912970 0.040313
vt 0.017272 0.790647
vt 0.840880 0.924743
vt 0.151348 0.924743
vt 0.974956 0.790647
vt 0.151348 0.924744
vt 0.017272 0.790647
vt 0.974956 0.790646
vt 0.151348 0.924744
vt 0.017272 0.790647
vt 0.912970 0.713189
vt 0.831349 0.040313
vt 0.912970 0.040313
vt 0.755959 0.752859
vt 0.034748 0.031648
vt 0.755959 0.031648
vt 0.912971 0.713189
vt 0.831349 0.040313
vt 0.912970 0.040313
vt 0.831348 0.040313
vt 0.912969 0.713189
vt 0.831348 0.713189
vt 0.831348 0.040313
vt 0.912969 0.713189
vt 0.831348 0.713189
vt 0.974956 0.790647
vt 0.151348 0.924744
vt 0.017272 0.790647
vt 0.840880 0.924743
vt 0.151348 0.924743
vt 0.974956 0.790646
vt 0.151348 0.924744
vt 0.151348 0.924744
vt 0.755959 0.752859
vt 0.034748 0.031648
vt 0.755959 0.031648
vt 0.151348 0.924744
vt 0.831348 0.040313
vt 0.912969 0.713189
vt 0.831348 0.713189
vt 0.831348 0.040313
vt 0.912969 0.713189
vt 0.831348 0.713189
vt 0.912970 0.713189
vt 0.831349 0.040313
vt 0.912970 0.040313
vt 0.912971 0.713189
vt 0.831349 0.040313
vt 0.912970 0.040313
vt 0.840880 0.924743
vt 0.151348 0.924743
vt 0.974956 0.790647
vt 0.151348 0.924744
vt 0.151348 0.924744
vt 0.912970 0.713189
vt 0.831349 0.040313
vt 0.912970 0.040313
vt 0.755959 0.752859
vt 0.034748 0.031648
vt 0.755959 0.031648
vt 0.912971 0.713189
vt 0.831349 0.040313
vt 0.912970 0.040313
vt 0.831348 0.040313
vt 0.912969 0.713189
vt 0.831348 0.713189
vt 0.831348 0.713189
vt 0.912970 0.040313
vt 0.912969 0.713189
vt 0.840880 0.924743
vt 0.151348 0.924744
vt 0.151348 0.924743
vt 0.151348 0.924744
vt 0.151348 0.924744
vt 0.755959 0.752859
vt 0.034748 0.031648
vt 0.755959 0.031648
vt 0.151348 0.924744
vt 0.831348 0.040313
vt 0.912969 0.713189
vt 0.831348 0.713189
vt 0.831348 0.713189
vt 0.912970 0.040313
vt 0.912969 0.713189
vt 0.912970 0.040313
vt 0.831349 0.713189
vt 0.831349 0.040313
vt 0.912971 0.713189
vt 0.831349 0.040313
vt 0.912970 0.040313
vt 0.840880 0.924743
vt 0.151348 0.924743
vt 0.151348 0.924744
vt 0.840880 0.924743
vt 0.151348 0.924744
vt 0.912970 0.040313
vt 0.831349 0.713189
vt 0.831349 0.040313
vt 0.755959 0.752859
vt 0.034748 0.031648
vt 0.755959 0.031648
vt 0.912971 0.713189
vt 0.831349 0.040313
vt 0.912970 0.040313
vt 0.831348 0.713189
vt 0.912969 0.040313
vt 0.912969 0.713189
vt 0.831348 0.713189
vt 0.912970 0.040313
vt 0.912969 0.713189
vt 0.840880 0.924743
vt 0.151348 0.924744
vt 0.840880 0.924743
vt 0.840880 0.924743
vt 0.034748 0.752859
vt 0.840880 0.924744
vt 0.912969 0.040313
vt 0.912970 0.040313
vt 0.831349 0.713189
vt 0.831349 0.713189
vt 0.840880 0.924744
vt 0.840880 0.924743
vt 0.831349 0.713189
vt 0.034748 0.752859
vt 0.831349 0.713189
vt 0.912969 0.040313
vt 0.912970 0.040313
vt 0.840880 0.924743
vt 0.840880 0.924743
vt 0.840880 0.924743
vt 0.034748 0.752859
vt 0.840880 0.924744
vt 0.912969 0.040313
vt 0.912970 0.040313
vt 0.831349 0.713189
vt 0.831349 0.713189
vt 0.840880 0.924744
vt 0.840880 0.924743
vt 0.831349 0.713189
vt 0.034748 0.752859
vt 0.831349 0.713189
vt 0.912969 0.040313
vt 0.831348 0.040313
vt 0.840880 0.924743
vt 0.840880 0.924743
vt 0.840880 0.924743
vt 0.034748 0.752859
vt 0.840880 0.924744
vt 0.912969 0.040313
vt 0.831348 0.040313
vt 0.912970 0.713189
vt 0.831349 0.713189
vt 0.840880 0.924744
vt 0.912970 0.713189
vt 0.034748 0.752859
vt 0.831349 0.713189
vt 0.831348 0.040313
vt 0.831348 0.040313
vn 0.0000 0.0000 1.0000
vn -1.0000 0.0000 0.0000
vn 0.0000 -1.0000 0.0000
vn 1.0000 0.0000 0.0000
vn 0.0000 1.0000 0.0000
vn 0.0000 0.0000 -1.0000
usemtl Material.002
s off
f 5/1/1 7/2/1 1/3/1
f 1/4/1 6/5/1 2/6/1
f 5/7/1 3/8/1 4/9/1
f 8/10/1 10/11/1 11/12/1
f 2/13/1 3/14/1 38/15/1
f 3/16/2 11/17/2 4/18/2
f 6/19/3 8/20/3 3/21/3
f 7/22/4 9/23/4 6/24/4
f 4/25/5 10/26/5 7/27/5
f 54/28/6 19/29/6 16/30/6
f 21/31/6 20/32/6 41/33/6
f 54/34/6 17/35/6 21/36/6
f 16/37/2 14/38/2 17/39/2
f 15/40/6 13/41/6 12/42/6
f 19/43/5 13/44/5 16/45/5
f 20/46/4 12/47/4 19/48/4
f 17/49/3 15/50/3 20/51/3
f 41/52/6 19/53/6 18/54/6
f 18/54/2 22/55/2 25/56/2
f 18/57/2 24/58/2 41/33/2
f 2/13/2 22/59/2 1/3/2
f 26/60/2 28/61/2 29/62/2
f 41/52/2 23/63/2 2/6/2
f 23/64/6 29/65/6 22/66/6
f 24/67/3 26/68/3 23/69/3
f 25/70/1 27/71/1 24/72/1
f 22/73/5 28/74/5 25/75/5
f 5/7/4 36/76/4 34/77/4
f 38/78/4 37/79/4 21/36/4
f 5/1/4 35/80/4 38/15/4
f 34/81/6 32/82/6 35/83/6
f 33/84/4 31/85/4 30/86/4
f 36/87/5 31/88/5 34/89/5
f 37/90/1 30/91/1 36/92/1
f 37/93/3 32/94/3 33/95/3
f 54/28/4 37/96/4 36/97/4
f 2/13/5 43/98/5 41/33/5
f 41/52/5 42/99/5 21/36/5
f 38/78/5 39/100/5 2/6/5
f 44/101/5 46/102/5 47/103/5
f 21/31/5 40/104/5 38/15/5
f 40/105/6 47/106/6 39/107/6
f 40/108/2 45/109/2 44/110/2
f 42/111/1 46/112/1 45/113/1
f 39/114/4 46/115/4 43/116/4
f 1/3/3 55/117/3 52/118/3
f 5/1/3 56/119/3 54/28/3
f 5/7/3 52/120/3 53/121/3
f 53/122/6 49/123/6 50/124/6
f 51/125/3 49/126/3 48/127/3
f 55/128/4 49/129/4 52/130/4
f 55/131/1 51/132/1 48/133/1
f 56/134/2 50/135/2 51/136/2
f 18/54/3 56/137/3 55/138/3
f 5/1/1 4/139/1 7/2/1
f 1/4/1 7/140/1 6/5/1
f 5/7/1 38/78/1 3/8/1
f 8/10/1 9/141/1 10/11/1
f 2/13/1 6/142/1 3/14/1
f 3/16/2 8/143/2 11/17/2
f 6/19/3 9/144/3 8/20/3
f 7/22/4 10/145/4 9/23/4
f 4/25/5 11/146/5 10/26/5
f 54/28/6 18/57/6 19/29/6
f 21/31/6 17/147/6 20/32/6
f 54/34/6 16/148/6 17/35/6
f 16/37/2 13/149/2 14/38/2
f 15/40/6 14/150/6 13/41/6
f 19/43/5 12/151/5 13/44/5
f 20/46/4 15/152/4 12/47/4
f 17/49/3 14/153/3 15/50/3
f 41/52/6 20/154/6 19/53/6
f 18/54/2 1/4/2 22/55/2
f 18/57/2 25/155/2 24/58/2
f 2/13/2 23/156/2 22/59/2
f 26/60/2 27/157/2 28/61/2
f 41/52/2 24/158/2 23/63/2
f 23/64/6 26/159/6 29/65/6
f 24/67/3 27/160/3 26/68/3
f 25/70/1 28/161/1 27/71/1
f 22/73/5 29/162/5 28/74/5
f 5/7/4 54/34/4 36/76/4
f 38/78/4 35/163/4 37/79/4
f 5/1/4 34/164/4 35/80/4
f 34/81/6 31/165/6 32/82/6
f 33/84/4 32/166/4 31/85/4
f 36/87/5 30/167/5 31/88/5
f 37/90/1 33/168/1 30/91/1
f 37/93/3 35/169/3 32/94/3
f 54/28/4 21/31/4 37/96/4
f 2/13/5 39/170/5 43/98/5
f 41/52/5 43/171/5 42/99/5
f 38/78/5 40/172/5 39/100/5
f 44/101/5 45/173/5 46/102/5
f 21/31/5 42/174/5 40/104/5
f 40/105/6 44/175/6 47/106/6
f 40/108/2 42/176/2 45/109/2
f 42/111/1 43/177/1 46/112/1
f 39/114/4 47/178/4 46/115/4
f 1/3/3 18/57/3 55/117/3
f 5/1/3 53/179/3 56/119/3
f 5/7/3 1/4/3 52/120/3
f 53/122/6 52/180/6 49/123/6
f 51/125/3 50/181/3 49/126/3
f 55/128/4 48/182/4 49/129/4
f 55/131/1 56/183/1 51/132/1
f 56/134/2 53/184/2 50/135/2
f 18/54/3 54/34/3 56/137/3
